<svg width="57" height="57" viewBox="0 0 57 57" fill="none" xmlns="http://www.w3.org/2000/svg">
    <circle cx="28.5" cy="28.5" r="28.5" fill="#EBF2F9"/>
    <path d="M39.375 38.375C39.375 38.375 39.375 36.8797 39.2504 36.098C39.1484 35.4807 38.2932 34.665 34.6568 33.3283C31.0771 32.0143 31.298 32.6543 31.298 30.2357C31.298 28.6668 32.0967 29.5787 32.6064 26.5994C32.8047 25.427 32.9633 26.2086 33.3937 24.3281C33.6203 23.3426 33.2408 23.2689 33.2861 22.7988C33.3314 22.3287 33.3768 21.9096 33.4617 20.9467C33.5637 19.7572 32.4592 16.625 28.5 16.625C24.5408 16.625 23.4363 19.7572 23.5439 20.9523C23.6289 21.9096 23.6742 22.3344 23.7195 22.8045C23.7648 23.2746 23.3854 23.3482 23.6119 24.3338C24.0424 26.2086 24.201 25.427 24.3992 26.6051C24.909 29.5844 25.7076 28.6725 25.7076 30.2414C25.7076 32.6656 25.9285 32.0256 22.3488 33.334C18.7125 34.665 17.8516 35.4863 17.7553 36.1037C17.625 36.8797 17.625 38.375 17.625 38.375H28.5H39.375Z" fill="#D2DBEB"/>
</svg>
